<?xml version="1.0" encoding="utf-8"?>
<svg xmlns="http://www.w3.org/2000/svg" xmlns:xlink="http://www.w3.org/1999/xlink" style="margin: auto; background: none; display: block; shape-rendering: auto;" width="64px" height="64px" viewBox="0 0 100 100" preserveAspectRatio="xMidYMid">
<g transform="rotate(0 50 50)">
  <rect x="47.5" y="19" rx="0" ry="0" width="5" height="16" fill="#dedede">
    <animate attributeName="opacity" values="1;0" keyTimes="0;1" dur="0.42016806722689076s" begin="-0.3851540616246499s" repeatCount="indefinite"></animate>
  </rect>
</g><g transform="rotate(30 50 50)">
  <rect x="47.5" y="19" rx="0" ry="0" width="5" height="16" fill="#dedede">
    <animate attributeName="opacity" values="1;0" keyTimes="0;1" dur="0.42016806722689076s" begin="-0.350140056022409s" repeatCount="indefinite"></animate>
  </rect>
</g><g transform="rotate(60 50 50)">
  <rect x="47.5" y="19" rx="0" ry="0" width="5" height="16" fill="#dedede">
    <animate attributeName="opacity" values="1;0" keyTimes="0;1" dur="0.42016806722689076s" begin="-0.31512605042016806s" repeatCount="indefinite"></animate>
  </rect>
</g><g transform="rotate(90 50 50)">
  <rect x="47.5" y="19" rx="0" ry="0" width="5" height="16" fill="#dedede">
    <animate attributeName="opacity" values="1;0" keyTimes="0;1" dur="0.42016806722689076s" begin="-0.2801120448179272s" repeatCount="indefinite"></animate>
  </rect>
</g><g transform="rotate(120 50 50)">
  <rect x="47.5" y="19" rx="0" ry="0" width="5" height="16" fill="#dedede">
    <animate attributeName="opacity" values="1;0" keyTimes="0;1" dur="0.42016806722689076s" begin="-0.2450980392156863s" repeatCount="indefinite"></animate>
  </rect>
</g><g transform="rotate(150 50 50)">
  <rect x="47.5" y="19" rx="0" ry="0" width="5" height="16" fill="#dedede">
    <animate attributeName="opacity" values="1;0" keyTimes="0;1" dur="0.42016806722689076s" begin="-0.21008403361344538s" repeatCount="indefinite"></animate>
  </rect>
</g><g transform="rotate(180 50 50)">
  <rect x="47.5" y="19" rx="0" ry="0" width="5" height="16" fill="#dedede">
    <animate attributeName="opacity" values="1;0" keyTimes="0;1" dur="0.42016806722689076s" begin="-0.1750700280112045s" repeatCount="indefinite"></animate>
  </rect>
</g><g transform="rotate(210 50 50)">
  <rect x="47.5" y="19" rx="0" ry="0" width="5" height="16" fill="#dedede">
    <animate attributeName="opacity" values="1;0" keyTimes="0;1" dur="0.42016806722689076s" begin="-0.1400560224089636s" repeatCount="indefinite"></animate>
  </rect>
</g><g transform="rotate(240 50 50)">
  <rect x="47.5" y="19" rx="0" ry="0" width="5" height="16" fill="#dedede">
    <animate attributeName="opacity" values="1;0" keyTimes="0;1" dur="0.42016806722689076s" begin="-0.10504201680672269s" repeatCount="indefinite"></animate>
  </rect>
</g><g transform="rotate(270 50 50)">
  <rect x="47.5" y="19" rx="0" ry="0" width="5" height="16" fill="#dedede">
    <animate attributeName="opacity" values="1;0" keyTimes="0;1" dur="0.42016806722689076s" begin="-0.0700280112044818s" repeatCount="indefinite"></animate>
  </rect>
</g><g transform="rotate(300 50 50)">
  <rect x="47.5" y="19" rx="0" ry="0" width="5" height="16" fill="#dedede">
    <animate attributeName="opacity" values="1;0" keyTimes="0;1" dur="0.42016806722689076s" begin="-0.0350140056022409s" repeatCount="indefinite"></animate>
  </rect>
</g><g transform="rotate(330 50 50)">
  <rect x="47.5" y="19" rx="0" ry="0" width="5" height="16" fill="#dedede">
    <animate attributeName="opacity" values="1;0" keyTimes="0;1" dur="0.42016806722689076s" begin="0s" repeatCount="indefinite"></animate>
  </rect>
</g>
<!-- [ldio] generated by https://loading.io/ --></svg>